<?xml version="1.0" encoding="UTF-8"?>
<svg id="Layer_2" data-name="Layer 2" xmlns="http://www.w3.org/2000/svg" viewBox="0 0 939.75 229.36">
  <g id="Layer_1-2" data-name="Layer 1">
    <g>
      <path d="M532.9,0c77.6,5.66,110.51,77.17,92.65,147.05-14.99,52.73-52.43,77.1-106.33,76.86-30.79,1.65-61.57,.15-92.35,.8-4.28,.09-4.32-.07-4.57-4.42-.97-73.41,0-146.86-.38-220.29C458.92,0,495.91,0,532.9,0Zm-42.31,112.95c-.1,0-.2,0-.3,0,0,16.98,.01,33.96-.01,50.94,0,3.81,.04,3.98,3.78,4.06,13.29,.66,26.11-.26,38.4-5.63,27.92-10.8,29.9-45.74,24.44-71.01-1.49-10.92-8.44-19.41-16.68-26.32-14.03-8.24-31.24-9.51-47.19-9.68-1.75-.05-2.45,.54-2.44,2.22,.03,18.47,0,36.95,0,55.42Z"/>
      <path d="M108.98,0c10.39,1.22,20.79,1.64,30.81,5.22,17.5,7.01,34.78,19.91,37.46,39.93,4.5,34.43-2.49,53.04-36.9,64.3,5.68,2.51,12,3.19,17.75,5.45,9.13,6.31,16.18,12.21,20.96,22.54,5.99,10.56,5.35,21.87,4.67,33.08-.3,11.84-8.51,22.8-14.45,32.84-5.22,3.25-10.7,6.32-15.96,9.41-4.44,4.88-10.68,5.75-16.53,7.13-43,7.94-87.03,3.89-130.52,4.79-5.66,0-5.75-.07-5.76-5.46C.04,146.18,1.01,72.97,0,0,36.33,0,72.65,0,108.98,0Zm-42.73,154.81c.94,3.78-2.49,21.04,2.67,20.03,12.66-.29,25.56,1.43,37.54-4.45,11.72-4.84,12.43-24.68,2.32-31.43-11.37-6.45-25.8-3.86-38.43-4.57-3.54-.05-3.99,.34-4.07,3.98-.11,5.48-.03,10.96-.04,16.45Zm0-85.89c0,4.82,0,9.65,0,14.47,.01,4.6,.02,4.85,4.41,4.74,13.85-1.71,33.57,3.69,42.11-10.47,4.99-10.23,1.26-21.77-9.26-25.76-10.66-3.87-22.33-2.43-33.46-2.73-6.97-.98-2.68,15.17-3.81,19.75Z"/>
      <path d="M338.94,0c5.89,10.66,7.54,22.74,11.39,34.08,5.57,13.16,8.98,27.08,13.59,40.53,12.41,35.6,23.83,71.58,35.88,107.23,5.1,12.61,8.46,25.73,12.73,38.57,1.29,3.87,1.02,4.25-3.07,4.26-20.48,.03-40.97,.03-61.45,.01-5.12,0-6.58-.8-8.04-5.78-2.91-9.9-5.53-19.89-8.08-29.88-.73-2.88-2.57-3.01-4.87-2.99-21.31,.19-42.63,.06-63.95,.01-4.6-.01-4.51,0-5.78,4.1-2.16,6.95-4.46,13.86-6.68,20.8-2.48,4.41-1.37,13.7-7.93,13.71-20.98-.16-41.96-.15-62.93-.21-3.29-.01-3.51-.26-2.43-3.23,7.91-17.42,10.38-36.69,18.73-53.87C213.81,111.32,234.01,55.88,251.95,0h86.98Zm-45.01,135.01v-.08c24.52-.13,20.64,3.76,15.91-19.98-5.47-21.37-9.99-42.97-15.52-64.3-5.14,8.86-5.27,20.62-8.05,30.6-3.84,16.85-6.95,33.88-11.11,50.61-1.01,2.98,.04,3.15,2.27,3.15,5.5,0,11,0,16.49,0Z"/>
      <path d="M909.84,0c-5.04,18.9,12.33,37.74,23.91,51.24,5.66,6.45,8.28,14.42,3.54,22.24-1.92,3.88-6.88,.98-9.45,4.2-2.71,.94-6.31-5.86-9.33-7.03-25.08-15.64-37.33-17.54-44.03,14.98-1.05,5.22-1.36,10.43-5.41,14.86-7.79,15.72-1.35,22.23-20.88,35.11-5.57,3.68-9.12,8.52-10.85,14.8-2.58,10.51-14.45,13.92-20.69,22.16-3.22,3.25-1.63,7.56-1.37,11.38,1.09,9.38,1,19.79,4.85,28.39,3.99,.11,6.46,4.58,10.95,3.58,2.55-.22,6.29,0,7.24,3.06-3.31,2.84-9.21-.02-12.71,1.86-.68,4.01-2.34,1.52-4.16,.99-4.09-1.21-8.3-2.21-12.53-2.71-6.26-.58,.6,5.56,.02,8.63-5.66-2.34-8.55-9.98-14.76-4.34-1.04,1.32-4.63,2.32-3.62-.45,7.36-8.93-2.92-4.19-4.97-11.04,2.47-.42,4.99,.05,7.48,.1-.05-12.87-4.39-25.47-6.38-38.16-.62-5.96-9.02-8.83-9.77-14.89-.68-3.89-2.66-2.49-4.46-2.36-5.53,1.24-27.04,1.55-29.33-4.05-.39-4-4.18-7.84-2.13-11.49,.45-1.53,1.9-3.27,0-4.35-.96,1.93-4.29,1.85-3.96,4.98,.13,2.91,.4,6.02-.28,8.88-3.75-3.17-5.27-7.77-4.9-12.59,.04-.6-.68-1.26-1.05-1.9-2.79,1.99-1.26,5.73-1.79,8.66-3.69,4.15-.65-17.07-1.72-19.18-1.39-11.9,9.62-11.69,9-17.16-2.78,.29-4.11,3.37-4.45-1.09-.32-4.22-.31-8.31,3.48-11.29,.42-.33,.46-1.16,.67-1.76-3.17-1.5-4.63,2.35-6.53,4.21-.93,1.29-.68,3.33-2.17,4.31-1.44-1.43-1.7-3.48-2.38-5.31-6.72,1.5-6.8,6.47-8.27,2.68-4.91,.74-17.75,7.02-16.59-3.07,2.12-5.69-10.27-7.87-2.3-13.33,2.64-1.62,3.86-5.08,7.35-5.52-.05-3.35-7.84-3.58-10.56-4.93-10.46,7.41-6.06,22.6-8.26,33.35-5.3-2.68-7.06-9.73-8.25-15.35-1.63-9.11,3.37-16.82,4.5-25.34-.47-3.62-.34-4.04,3.09-5.05,3.18-.93,3.1-.87,.98-3.67-16-17.62,2.21-15.63-2.67-20.16-7.67-7.5,3.75-8.33,3.31-11.6-2.25,.43-4.23-2.27-6.86,.11-4.37,3.95-9.55,6.78-13.09,11.91-8.37,11.15-3.17,25.07-6.71,36.99-10.5-7.46-8.02-31.67-3.19-42.35,1.35-4.05,2.58-6.06,6.22-8.57,6.35-10.39,17.21-12.37,27.76-14.98,14.28-7.16,29.75,1.15,42.99,7.01,17.25,12.77,28.46,31.93,35.85,51.78,3.18,7.69,20.54,2.52,27.03,1.38,5.4-3.53,14.03-5.38,16.46-11.94,1.97-8.54,13.54-3.93,15.2-12.49,1.15-5.27,3.35-2.83,5.74-4.97,.34-4.76,4.22-7.53,6.3-11.3,.55-.99,1.36-2.15,2.33-2.53,3.4-.6,10.82-12.46,13.38-8.28,4.73-.7,5.6-6.59,14.3-5.49,3.35-3.38,7.13-2.27,11.12-2.03,2.77-.42,5.73-4.35,8.39-4.35,4.93,.58,7.59-2.39,10.41-5.41C903.84,0,906.84,0,909.84,0Zm-108.29,205.64c-.15,.01-.3,.02-.45,.03,.14,4.17-1.52,12.47,5.27,10.94,8.67-1.37,5.66-4.53-1.06-5.2,12.85-4.75,5.07-3.55,4.49-17.1-.08-2.57-2.7-2.87-2.8-5.7-.8-5.65-1.79-12.76-5.57-17.34-6.09,4.27,.49,26.48,.12,34.37Z"/>
      <path d="M648.67,229.36c-38.15-1.16-37.88-53.72-1.92-56.88,39.33,1.74,39.01,54.37,1.92,56.88Z"/>
    </g>
  </g>
</svg>