<?xml version="1.0" encoding="UTF-8"?>
<svg id="Layer_2" data-name="Layer 2" xmlns="http://www.w3.org/2000/svg" viewBox="0 0 529.87 300">
  <g id="Layer_1-2" data-name="Layer 1">
    <g>
      <path d="M315.87,300c-.87-2.9-2.48-5.81-2.49-8.71-.13-94.78-.11-189.56-.13-284.34,0-2.32-.25-4.63-.39-6.95,45.33,0,90.67,0,136,0,1.86,.55,3.72,1.14,5.6,1.63,4.43,1.15,9.31,1.43,13.25,3.51,22.26,11.77,41.82,26.57,52.73,50.29,5.34,11.6,9.4,23.56,9.4,36.55,0,36.12,.11,72.25-.1,108.37-.04,7.04-1.02,14.11-2.02,21.11-2.19,15.35-10.04,28.18-18.73,40.57-8.44,12.05-21,19.19-32.81,27.18-7.51,5.08-15.51,8.83-24.95,8.61-1.77-.04-3.58,1.41-5.37,2.18h-130Zm18.55-149.74c0,39.83,0,79.66,0,119.49,0,8.33,.6,8.99,8.7,8.98,35.16-.01,70.33-.05,105.49-.1,1.49,0,3.17,.19,4.43-.41,16.99-8,32.88-17.56,43.24-33.92,8.21-12.96,12.59-27.01,12.45-42.63-.32-35.66-.23-71.33-.02-106.99,.05-9.15-2.64-17.5-5.42-25.96-5.85-17.84-19.35-28.96-34.1-38.97-9.87-6.7-20.5-9.58-32.77-9.29-30.81,.72-61.65,.24-92.48,.24-8.29,0-9.54,1.24-9.54,9.57,0,40,0,79.99,0,119.99Z"/>
      <path d="M141.87,300c-2.28-.78-4.59-2.3-6.85-2.21-9.28,.34-16.8-3.74-24.54-8.14-14.26-8.11-24.39-19.91-32.01-34.05-1.9-3.52-2.62-7.75-3.53-11.73-1.41-6.22-2.54-12.49-3.71-18.76-.33-1.78-.57-3.62-.57-5.43-.03-46.8-.2-93.59,.16-140.39,.06-7.27,3.22-14.47,3.75-21.79,1.1-15.36,10.49-26.07,20.24-36.1,8.55-8.79,18.94-15.7,31.08-19.16,2.03-.58,4.29-.27,6.4-.63C134.51,1.24,136.68,.55,138.87,0c41.33,0,82.67,0,124,0,.24,5.3,.73,10.61,.62,15.9-.08,3.79-3.18,4.7-6.37,4.77-4.66,.1-9.33,.03-13.99,.03-33.49,0-66.98,.2-100.47-.11-11.83-.11-20.96,5.34-29.57,12.2-10.16,8.09-16.76,18.75-20.59,31.1-.62,2.01-.64,4.25-.64,6.39-.03,51.98,.03,103.97-.07,155.95-.02,11.98,5.11,21.88,12.14,30.84,7.99,10.19,18.63,16.95,30.91,21.01,1.68,.56,3.6,.54,5.4,.54,38.15,.03,76.31,.02,114.46,.02,7.88,0,8.95,1.02,8.86,8.99-.05,4.13-.45,8.25-.69,12.37h-121Z"/>
      <path d="M1.87,300c-.63-2.32-1.8-4.65-1.8-6.97C-.02,197.47-.01,101.92,.03,6.36,.03,4.24,.58,2.12,.87,0H17.87c.32,2.11,.91,4.23,.92,6.34,.05,95.43,.06,190.85-.08,286.28,0,2.46-1.85,4.92-2.83,7.38H1.87Z"/>
    </g>
  </g>
</svg>