<?xml version="1.0" encoding="UTF-8"?>
<svg id="Layer_2" data-name="Layer 2" xmlns="http://www.w3.org/2000/svg" viewBox="0 0 1150.74 300">
  <g id="Layer_1-2" data-name="Layer 1">
    <g>
      <path d="M825.99,0c4.88,1.22,9.71,2.83,14.67,3.6,12.93,1.99,23.7,8.48,34.21,15.64,12.47,8.49,23.11,18.88,29.79,32.47,3.76,7.66,7.19,15.99,8.34,24.35,6.07,43.96,2.36,88.22,2.48,132.33,.07,26.68-11.57,49.39-32.44,66.57-12.52,10.3-26.3,18.57-42.36,22.35-3.58,.84-7.13,1.79-10.69,2.69h-124c-.32-4.92-.92-9.84-.92-14.76,.01-85.14,.08-170.29,.2-255.43,.01-8.14,.34-16.28,.78-24.41,.1-1.83,1.26-3.6,1.94-5.39,39.33,0,78.67,0,118,0Zm-101.11,150.36c0,40.49,0,80.97,0,121.46,0,8.17,1.36,9.51,9.5,9.51,27.66-.01,55.32,.18,82.97-.17,6.81-.09,13.73-1.46,20.38-3.1,15.68-3.86,28.37-12.76,39.43-24.33,12.03-12.58,18.54-27.55,18.68-44.79,.33-39.32,.39-78.64-.14-117.95-.11-7.95-2.47-16.18-5.31-23.71-5.37-14.22-15.84-24.65-28.2-33.09-12.67-8.65-26.46-13.48-42.18-13.25-29.32,.43-58.64,.12-87.97,.12-7.1,0-7.17,.07-7.17,7.36,0,40.65,0,81.3,0,121.96Z"/>
      <path d="M658.99,0c3.93,4.74,2.88,10.42,2.54,15.75-.24,3.81-3.16,5.16-7.12,5.11-30.31-.42-60.63-1.21-90.93-.74-13.67,.21-27.65,.77-40.53,7.02-14.26,6.93-24.22,17.66-28.58,32.84-2.15,7.49-3.54,15.46-3.59,23.23-.33,44.65-.24,89.31-.12,133.96,.04,16.44,4.32,31.71,15.46,44.2,6.72,7.55,15.69,12.29,25.36,14.78,8.2,2.11,16.78,3.69,25.22,3.8,32.82,.43,65.64,.17,98.47,.18,5.63,0,6.69,.88,6.46,6.7-.17,4.4-1.06,8.78-1.63,13.17h-113c-5.32-1.25-10.64-2.51-15.96-3.74-26.98-6.25-45.24-22.34-54.81-48.37-3.96-10.77-5.45-21.87-5.44-33.29,.05-44.95-.77-89.92,.29-134.85,.75-31.78,15.1-56.36,44.67-70.77,9.79-4.77,20.36-5.87,30.79-7.82,1.18-.22,2.31-.77,3.46-1.16,36.33,0,72.67,0,109,0Z"/>
      <path d="M1036.99,300c-2.87-.82-5.68-1.99-8.61-2.41-29.34-4.17-49.81-19.75-61.18-47.19-5.18-12.51-6.74-25.69-6.79-39.04-.14-42.61-.62-85.24,.16-127.83,.46-24.92,8.1-47.66,28.36-64.17,9.93-8.1,21.17-13.69,34.07-15.65,5.72-.87,11.33-2.45,16.99-3.71,36.33,0,72.67,0,109,0,.58,5.2,1.37,10.39,1.68,15.61,.22,3.8-2.4,5.03-5.82,5-31.48-.24-62.97-.91-94.45-.49-13.7,.18-27.6,1.45-40.16,8.3-14.46,7.88-23.56,20-27.26,35.76-1.9,8.08-2.63,16.59-2.68,24.91-.26,41.99-.41,83.98,.04,125.96,.15,14.3,2.42,28.47,11.4,40.59,9,12.13,21.01,19.54,35.7,21.97,9.72,1.6,19.67,2.32,29.53,2.42,29.16,.31,58.32,.25,87.47-.03,4.84-.05,6.45,2.03,6.28,5.96-.21,4.7-1.13,9.36-1.74,14.04h-112Z"/>
      <path d="M235.99,300c-.67-3.49-1.92-6.99-1.93-10.48-.15-33.48,.22-66.96-.22-100.43-.23-17.34-5.63-33.19-19.04-45.03-9.73-8.59-21.36-13.44-34.54-13.94-10.59-.4-21.2-1.39-31.76-1.05-14.52,.47-28.65,2.78-41.1,11.55-11.19,7.88-17.35,18.92-20.79,31.51-1.88,6.88-2.47,14.29-2.53,21.47-.26,32.14-.06,64.29-.2,96.43-.01,3.32-1.23,6.63-1.88,9.95h-17c-.3-1.93-.85-3.87-.85-5.8-.05-59.63,.01-119.27-.13-178.9-.01-4.84,1.4-6.69,6.26-6.28,3.93,.33,7.92,.07,12.72,.07v24c.49,.27,.98,.55,1.47,.82,3.75-2.91,7.39-5.99,11.29-8.7,9.98-6.91,20.89-11.32,32.92-13.82,14.83-3.08,29.71-2.77,44.51-2.1,23.58,1.06,45.14,8.14,61.04,26.88,8.91,10.5,14.6,22.52,17.34,36.39,2.51,12.71,2.17,25.32,2.25,38,.18,29.81,.14,59.63,.19,89.44h-18Z"/>
      <path d="M.99,300c-.33-1.93-.96-3.86-.96-5.79C-.01,198.42-.01,102.64,.04,6.85,.04,4.56,.66,2.28,.99,0,6.33,0,11.66,0,16.99,0c.84,3.45,2.4,6.9,2.41,10.36,.13,93.63,.13,187.26,0,280.89,0,2.92-1.57,5.83-2.41,8.75H.99Z"/>
      <path d="M374.99,300c-5.45-1.26-10.89-2.55-16.35-3.77-12.28-2.75-23.65-7.64-32.56-16.59-6.34-6.37-12.75-13.23-16.95-21.03-4.16-7.72-6.75-16.73-8.01-25.47-5.55-38.67-1.65-77.64-2.7-116.47-.2-7.38,.19-7.65,7.51-7.57,13.96,.14,12.16-2,12.25,12.09,.06,8.94,0,8.95,9.23,8.95,11.66,0,23.32,.14,34.97-.07,4-.07,5.48,1.82,5.44,5.28-.13,13.8,2.4,15.03-13.34,14.7-10.15-.22-20.32,.1-30.48-.11-4.21-.09-5.94,1.15-5.9,5.66,.18,20.98-.63,42,.3,62.94,.77,17.37,5.69,33.72,19.47,45.93,7.95,7.04,17.21,11.77,27.65,13.14,10.93,1.44,22,1.91,33.02,2.45,4.67,.23,6.76,2.15,6.45,6.71-.3,4.42-.68,8.83-1.02,13.24h-29Z"/>
    </g>
  </g>
</svg>