<?xml version="1.0" encoding="UTF-8"?>
<svg id="Layer_2" data-name="Layer 2" xmlns="http://www.w3.org/2000/svg" viewBox="0 0 680.89 300.58">
  <g id="Layer_1-2" data-name="Layer 1">
    <g>
      <path d="M341.01,0V155.23c.42,.22,.85,.43,1.27,.65,20.43-25.78,38.78-54.09,59.71-79.3h61.51c-20.18,33.07-47.41,61.19-68.43,93.84,15.55,27.17,30.61,54.56,46,81.81,7.73,16.09,20.51,30.48,24.95,47.76h-64c-13.25-27.1-26.5-54.2-40.25-82.32-8.33,4.39-11.56,13.52-17.43,20.4-2.13,2.86-3.39,5.8-3.37,9.49,.12,17.47,.05,34.95,.05,52.42h-54c-2.17-99.19-2.94-198.39-1.42-297.57,.26-.45,.84-1.44,1.42-2.43,18,0,36,0,54,0Z"/>
      <path d="M572.01,300c-46.03-10.87-65.31-38.14-71.97-84.26-4.18-37.33-3.62-77.24,16.94-110.1,23.35-40.28,81.95-55.48,120.68-28.57,38.04,26.27,46.93,78.1,41.98,120.96h-126.48c-6.16,19.75,4.35,51.48,26.04,57.97,26.5,7.19,37.76-6.12,46.87-28.75h48.36c1.4,28.84-17.67,57.92-45.49,66.97-6.01,2.68-13.68,1.67-18.93,5.78h-38Zm49.99-142.57c3.33-5.29,1.02-11.58,.16-17.32-.84-8.55-4.56-15.87-9.68-22.64-5.92-8.64-18.71-11.47-28.25-9.04-22.25,3.44-29.01,26.28-30.75,45.7,.34,.64,1.03,1.93,1.76,3.31h66.76Z"/>
      <path d="M187.01,0c4.92,24.97-1.85,51.43,3.18,76.37h43.69v42.01h-43.28c-5.26,33.94-.52,69.97-1.95,104.62-.88,9.44,3.2,20.07,8.94,26.53,12.85,4.7,24.43,2,35.68,3.11,2.2,7.17,1.12,37.12-1.18,41.24-29.89,9.36-81.57,14.25-94.51-22.74-10.76-49.79-1.98-101.42-5.24-152.01h-31.29c-2.35-1.36-3.89-2.26-5-2.9v-39.74h36.31V24.05C149.96,14.78,168.78,7.03,187.01,0Z"/>
      <path d="M0,300V76.47H54.43c.26,74.43,1.35,149.18-.42,223.53H0Z"/>
      <path d="M55.01,0c-.99,16.74,1.89,34.37-1.88,50.68H.08C-.07,33.69,.04,16.84,0,0H55.01Z"/>
    </g>
  </g>
</svg>